<?xml version="1.0" encoding="UTF-8"?>
<svg id="ebene_1" xmlns="http://www.w3.org/2000/svg" viewBox="0 0 956.88 789.11">
  <path d="M548.27,373.69c-29.05,57.73-83.99,96.84-139.45,126.91-61.08,33.12-129.49,56.46-199.64,55.7-63.64-.69-129.48-21.52-176.03-66.23-11.79-11.32-22.28-24.67-27.12-40.5-4.75-15.54-3.6-32.03,1.33-47.37,10.12-31.51,33.47-57.06,57.97-78.35,48.37-42.04,107.84-70.11,169.94-85.02,67-16.08,136.8-16.44,204.61-5.33,71.89,11.77,141.32,35.86,207.16,66.69,66.21,31,129.02,68.69,190.51,108.09,15.52,9.95,30.97,20.01,46.39,30.12,14.24,9.33,29.25,18.15,42.15,29.33s21.76,25.45,25.02,42.75,3.25,34.47,2.45,51.34c-.79,16.45-3.74,33.26-12.41,47.52-8.21,13.5-20.97,23.28-34.75,30.63-14.22,7.58-29.58,12.92-44.83,18-17.5,5.82-35.27,10.88-53.33,14.64-36.66,7.64-74.53,9.7-111.37,2.06s-68.25-21.86-99.95-38.27c-59.21-30.66-114.57-70.42-157.46-121.88s-72.13-113.56-77.92-179.84c-1.53-17.51-1.53-35.49,2.92-52.6,4.12-15.82,12.33-29.92,23.73-41.6,22.28-22.82,53.16-35.62,83.37-44.08,35.38-9.9,72.21-13.51,108.86-13.87,34.86-.35,69.92,1.69,104.51,6.03,34.25,4.3,68.3,11.34,100.88,22.87,31.06,10.99,62.15,25.97,87.38,47.46,11.78,10.03,22.32,21.75,29.66,35.44,8.08,15.07,11.34,31.9,10.3,48.92-2.05,33.62-18.05,66.23-36.37,93.93-35.22,53.26-87.38,93.49-144.65,120.7-32.31,15.35-66.37,26.79-101.04,35.5-35.46,8.91-71.93,15.81-108.38,18.96s-75.28-.05-111.4-12.7c-32.58-11.4-63.49-27.99-92.61-46.41-55.8-35.3-105.46-80.28-145.98-132.42-20.6-26.5-41.25-58.36-35.08-93.55,5.73-32.68,30.3-59.35,56.61-77.8,26.22-18.38,56.38-30.27,86.77-39.76,34.7-10.84,70.18-19.45,105.84-26.46,37.51-7.37,75.42-12.76,113.5-16.09,36.72-3.2,73.85-4.34,110.51.17,61.61,7.58,118.34,33.93,164.48,75.37,43.24,38.83,76.37,88.9,95.8,143.64,23.34,65.72,27.81,139.13,8.42,206.43-16.96,58.87-53.27,112.29-103.41,147.86-55.36,39.27-123.14,50.46-189.69,43.32-35.53-3.81-70.46-12.29-104.46-23.11-33.52-10.66-66.83-23.15-98.52-38.45-30.79-14.86-59.46-33.4-84.02-57.31-22.84-22.23-42-47.99-58.15-75.41s-30.83-58.22-41.32-89.12c-6.06-17.84-10.25-36.88-7.4-55.76,2.61-17.29,10.53-33.26,19.88-47.85,32.88-51.25,84.16-90.07,141.45-110.14,28.67-10.04,58.96-15.46,89.36-15.46,35.94,0,71.49,7.13,105.62,18.05s68.01,26,100.63,42.07,62.89,32.7,93.05,51.29c30.72,18.94,60.49,39.48,88.86,61.8,12.63,9.94,25.03,20.38,35.42,32.71,11.49,13.63,19.12,29.32,23.56,46.55,4.28,16.63,6.38,33.93,8.12,50.98,1.67,16.26,2.23,34.08-6.29,48.69-8.36,14.32-23.93,22.54-39.34,27.14-17.13,5.12-35.26,6.03-52.96,4-36.01-4.12-69.01-20.41-99.53-39.13-28.24-17.32-55.86-35.91-83.27-54.51-52.56-35.66-104.37-76.36-134.58-133.59-32.8-62.13-39.28-134.45-48.85-202.9-10.41-74.48-20.82-148.95-31.23-223.43-.27-1.9-3.16-1.09-2.89.8,11.24,80.42,22.49,160.85,33.73,241.27,9.71,69.46,18.22,142.6,56.7,203.09,35.15,55.25,89.85,93.84,143.58,129.38,29.46,19.49,58.63,40.1,89.91,56.61s66.02,28.29,101.73,26.21c29.79-1.73,65.74-13.7,74.69-45.59,4.39-15.64,2.41-32.28.44-48.13-2.18-17.53-4.45-35.23-10.11-52.04-10.9-32.32-36.13-54.35-62.33-74.61-29.15-22.55-59.67-43.3-91.2-62.38s-64.6-36.78-98.11-52.83c-33.31-15.94-67.46-30.47-103.03-40.6s-69.81-15.35-105.38-13.56c-30.85,1.55-61.38,8.5-89.99,20.12-56.62,22.98-108.77,65.06-137.88,119.43-7.97,14.88-13.45,31.13-13.64,48.13-.21,18.35,5.02,36.29,11.4,53.32,11.61,31.02,26,61.24,43.42,89.43s37.16,53.13,61.07,74.89c25.99,23.65,56.24,41.52,88.14,55.99,32.59,14.79,66.48,27.29,100.77,37.51,34.65,10.33,70.27,18.01,106.39,20.63,35.22,2.55,71.01.08,105.01-9.79,29.88-8.68,57.74-23.1,82.27-42.22,49.86-38.89,84.43-95.25,98.96-156.57,16.14-68.16,9.07-141.54-16.77-206.43-21.84-54.83-57.28-104.54-102.95-142.04-22.71-18.65-47.92-34.25-75-45.71-30.99-13.12-64.02-20.16-97.51-22.75-38.42-2.97-77.07-.49-115.31,3.65-38.61,4.18-76.99,10.42-114.93,18.71-35.82,7.83-71.75,16.9-106.24,29.49-29.89,10.91-59.09,25.31-82.86,46.8s-42.83,50.66-40.96,83.37c1.91,33.42,23.63,62,43.9,87.02,42.71,52.74,94.89,97.82,153.24,132.48,30.72,18.24,63.32,34.57,97.89,44.06,37.47,10.29,76.12,9.87,114.4,4.9,71.94-9.33,144.56-27.53,208.87-61.86,56.44-30.13,106.87-74.13,138.3-130.4,16.34-29.25,29.92-63.72,25.17-97.8-4.29-30.78-24.99-55.37-49.13-73.5-55.37-41.58-126.9-58.37-194.55-65.52-72.15-7.63-149.1-9.11-218.49,14.94-28.32,9.82-56.67,24.54-75.29,48.74-21.24,27.6-22.46,63.16-18.41,96.42,8.11,66.64,39.68,128.93,83.52,179.19,45.29,51.93,103.2,91.59,164.71,121.89,32.78,16.14,67.3,29.9,103.69,35,36.96,5.19,74.53,1.09,110.63-7.69,18.44-4.48,36.58-10.17,54.43-16.58,14.33-5.14,28.64-10.93,41.41-19.32s23.42-19.36,29.78-33.28c6.61-14.47,8.62-30.52,9.02-46.28.42-16.71.27-34.25-3.39-50.62-3.55-15.88-11.89-29.09-24-39.85-12.46-11.07-27.01-19.73-40.9-28.84-16.16-10.6-32.35-21.16-48.62-31.59-64.23-41.18-129.9-80.51-199.34-112.32-67.85-31.08-139.54-54.93-213.62-65.35-68.61-9.65-138.87-7.38-205.9,10.9-62.84,17.14-122.41,48.06-169.71,93.22-23.01,21.97-44.44,49.69-50.01,81.8-2.55,14.67-1.22,29.77,4.69,43.51,6.37,14.81,17.22,27.24,29.07,37.96,48.13,43.51,113.92,63.53,178.04,63.43,71.36-.11,140.72-24.69,202.52-58.99,53.96-29.95,106.94-68.74,135.32-125.13.87-1.72-1.72-3.24-2.59-1.51h0Z"/>
</svg>